<svg version="1.0" xmlns="http://www.w3.org/2000/svg"
 width="3200.000000pt" height="3200.000000pt" viewBox="0 0 3200.000000 3200.000000"
 preserveAspectRatio="xMidYMid meet">

<g transform="translate(0.000000,3200.000000) scale(0.100000,-0.100000)"
fill="#000000" stroke="none">
<path d="M15580 31994 c-41 -2 -183 -8 -315 -14 -1762 -79 -3504 -453 -5175
-1113 -1187 -469 -2367 -1115 -3435 -1882 -2342 -1681 -4202 -3995 -5347
-6655 -991 -2302 -1426 -4782 -1278 -7285 155 -2610 950 -5143 2318 -7384 968
-1587 2200 -2986 3662 -4157 1095 -878 2376 -1646 3680 -2206 1612 -693 3348
-1117 5130 -1252 729 -56 1631 -56 2360 0 1914 145 3747 616 5485 1409 227
103 753 368 995 501 1186 649 2276 1434 3245 2339 1730 1614 3069 3568 3947
5760 587 1465 954 3011 1087 4575 69 810 78 1522 31 2325 -196 3291 -1410
6450 -3472 9032 -904 1132 -1984 2159 -3153 2998 -1859 1334 -3978 2257 -6195
2699 -802 160 -1529 250 -2385 296 -191 11 -1045 21 -1185 14z m-6269 -7949
c88 -31 117 -73 159 -230 18 -66 43 -159 56 -207 41 -150 28 -227 -50 -296
-102 -89 -264 -56 -325 67 -10 20 -26 68 -36 106 -9 39 -33 126 -51 195 -19
69 -34 143 -34 165 1 81 55 159 135 196 49 23 88 24 146 4z m11784 -289 c109
-51 832 -479 861 -510 76 -80 79 -206 6 -285 -26 -27 -162 -113 -441 -276
-222 -130 -422 -243 -445 -252 -165 -59 -332 130 -257 292 33 70 28 67 341
249 107 63 195 119 195 125 0 5 -103 71 -230 146 -126 75 -243 148 -259 163
-114 107 -70 304 81 358 55 19 91 17 148 -10z m-10814 -272 c76 -44 121 -143
105 -227 -10 -54 -60 -124 -106 -147 -37 -19 -133 -48 -230 -70 -19 -4 -80
-20 -135 -35 -128 -34 -188 -31 -248 12 -127 93 -115 293 23 363 29 15 403
121 465 132 32 6 90 -7 126 -28z m-1085 -288 c130 -60 156 -243 49 -348 -23
-24 -118 -68 -145 -68 -5 0 -91 -22 -192 -50 -101 -27 -196 -50 -213 -50 -78
1 -166 71 -190 153 -28 93 -13 153 54 217 43 42 56 48 171 79 69 19 170 46
225 62 125 35 175 36 241 5z m434 -269 c63 -33 99 -83 121 -168 11 -41 34
-123 50 -184 62 -227 61 -281 -4 -360 -62 -76 -165 -95 -258 -47 -87 44 -90
51 -174 377 -50 193 -52 223 -15 295 50 97 183 138 280 87z m7176 -1772 c381
-96 641 -373 700 -745 l15 -97 -46 -254 c-26 -140 -51 -276 -55 -304 -49 -279
-85 -483 -115 -655 -20 -113 -52 -295 -70 -405 -19 -110 -46 -265 -60 -345
-39 -223 -103 -594 -140 -810 -19 -107 -45 -260 -59 -340 -14 -80 -48 -278
-76 -440 -27 -162 -70 -412 -95 -555 -24 -143 -63 -366 -85 -495 -22 -129 -52
-300 -66 -380 -14 -80 -29 -170 -34 -200 -4 -30 -22 -136 -39 -235 -18 -99
-34 -191 -36 -205 -9 -56 -57 -333 -76 -440 -11 -63 -29 -164 -39 -225 -10
-60 -32 -189 -49 -285 -39 -224 -70 -403 -115 -665 -20 -115 -45 -257 -56
-315 -11 -58 -36 -199 -56 -315 -43 -250 -77 -447 -99 -570 -9 -49 -25 -137
-35 -195 -10 -58 -26 -145 -35 -195 -9 -49 -27 -151 -40 -225 -13 -74 -49
-272 -80 -440 -31 -168 -60 -327 -65 -355 -53 -295 -150 -785 -176 -885 -28
-108 -113 -247 -211 -345 -170 -170 -385 -256 -638 -257 -294 -1 -578 119
-776 329 -117 125 -198 276 -235 438 -23 105 -24 308 0 425 24 124 46 249 127
710 27 153 127 719 154 870 31 175 70 390 140 790 41 234 81 461 89 505 29
161 68 381 156 880 50 281 113 638 141 795 28 157 64 359 80 450 16 91 33 190
39 220 6 30 46 258 90 505 90 513 96 547 145 820 19 110 53 304 75 430 23 127
45 253 51 280 5 28 52 293 105 590 52 297 110 626 128 730 19 105 53 294 75
420 22 127 61 345 87 485 25 140 49 280 54 310 5 30 16 96 25 145 71 399 80
434 142 560 139 280 423 477 743 515 119 14 283 4 396 -25z m2750 -1585 c142
-68 337 -161 433 -207 95 -45 174 -83 176 -83 1 0 82 -38 179 -85 227 -109
349 -167 566 -270 96 -45 276 -131 400 -190 124 -59 270 -129 325 -155 55 -26
197 -94 315 -150 118 -56 251 -119 295 -140 136 -64 263 -125 430 -205 88 -42
187 -90 220 -105 33 -15 114 -54 180 -85 66 -32 156 -74 200 -95 44 -21 139
-66 210 -100 72 -34 175 -84 230 -110 55 -26 154 -73 220 -105 200 -96 517
-246 573 -272 29 -13 141 -67 249 -119 108 -52 197 -94 198 -94 2 0 92 -43
200 -95 109 -52 198 -95 200 -95 1 0 81 -38 176 -84 248 -119 597 -285 644
-306 167 -74 414 -202 437 -226 60 -64 58 -23 58 -1118 l0 -1002 -26 -52 c-14
-29 -40 -63 -58 -75 -17 -13 -137 -73 -266 -135 -129 -61 -293 -139 -365 -173
-71 -34 -166 -78 -210 -99 -44 -21 -134 -63 -200 -95 -193 -93 -553 -264 -645
-307 -90 -43 -540 -257 -925 -441 -241 -114 -386 -184 -520 -247 -44 -21 -156
-74 -249 -119 -92 -45 -170 -81 -171 -81 -2 0 -79 -37 -172 -81 -92 -45 -199
-96 -238 -114 -38 -18 -150 -72 -249 -119 -98 -47 -180 -86 -182 -86 -1 0 -96
-45 -209 -100 -114 -55 -209 -100 -210 -100 -1 0 -78 -36 -171 -81 -93 -45
-290 -139 -439 -209 -148 -70 -350 -167 -449 -214 -98 -47 -179 -86 -181 -86
-1 0 -83 -39 -181 -86 -99 -48 -219 -106 -269 -129 -49 -23 -135 -64 -190 -90
-636 -303 -594 -285 -657 -285 -103 0 -174 54 -203 154 -14 46 -15 193 -13
1187 l3 1134 23 47 c13 26 37 58 52 72 16 13 134 66 262 116 412 163 1247 495
1828 725 311 123 774 307 1030 409 867 344 1204 477 1420 563 118 47 278 110
355 141 77 30 143 58 148 61 4 4 -145 67 -330 141 -186 73 -511 202 -723 285
-212 84 -448 178 -525 208 -77 30 -282 111 -455 180 -173 69 -389 154 -480
190 -176 69 -525 207 -965 382 -148 59 -333 132 -410 162 -77 30 -270 107
-430 170 -159 64 -379 151 -489 194 -109 43 -213 90 -231 103 -18 14 -44 47
-56 73 l-24 48 -3 1120 c-3 1174 -2 1208 40 1271 24 35 73 71 114 84 67 22
113 7 380 -120z m-7472 108 c25 -8 59 -31 87 -59 38 -37 49 -57 58 -100 8 -39
11 -380 9 -1194 l-3 -1140 -22 -42 c-12 -22 -37 -53 -55 -67 -18 -14 -235
-106 -483 -205 -490 -196 -1489 -593 -2145 -854 -228 -91 -725 -289 -1105
-440 -379 -151 -813 -323 -962 -383 -150 -59 -270 -111 -265 -115 4 -3 234
-97 512 -207 278 -110 885 -352 1350 -537 465 -185 1189 -474 1610 -642 421
-167 924 -368 1117 -445 339 -134 355 -142 392 -185 28 -31 43 -60 51 -97 7
-35 10 -404 8 -1191 l-3 -1140 -28 -48 c-39 -67 -94 -100 -171 -105 -70 -5
-39 -17 -496 200 -63 31 -322 153 -575 273 -253 120 -505 239 -560 265 -55 26
-192 91 -305 145 -113 54 -286 136 -385 183 -99 46 -245 116 -324 153 -79 38
-145 69 -146 69 -2 0 -83 39 -181 86 -99 48 -197 94 -219 104 -37 16 -272 128
-614 291 -79 38 -145 69 -146 69 -2 0 -87 41 -190 90 -103 50 -188 90 -190 90
-2 0 -79 36 -172 81 -92 45 -193 92 -223 106 -50 23 -254 120 -570 270 -63 31
-149 71 -190 90 -41 19 -122 58 -180 85 -58 28 -145 70 -195 93 -49 23 -139
66 -200 95 -60 29 -143 67 -182 86 -40 19 -139 65 -219 104 -81 38 -148 70
-149 70 -2 0 -81 37 -176 83 -96 46 -226 108 -289 138 -264 124 -293 141 -327
192 -21 31 -34 65 -38 100 -3 28 -5 493 -3 1032 l3 980 22 40 c11 22 32 50 45
62 19 18 240 127 583 288 39 18 167 79 285 135 118 56 247 117 285 135 75 35
125 59 610 290 318 151 636 302 760 360 39 18 214 101 390 185 528 252 548
261 610 290 33 15 204 96 380 180 176 84 361 171 410 195 50 23 353 167 675
320 322 153 632 300 690 328 58 27 141 66 185 87 44 21 127 60 185 87 96 46
923 439 1150 546 129 61 153 66 224 45z m-8744 -3243 c30 -102 57 -190 60
-195 4 -6 86 14 209 51 112 33 204 59 205 57 2 -2 20 -61 41 -133 21 -71 46
-157 57 -189 10 -33 15 -63 11 -67 -5 -4 -35 -14 -68 -24 -33 -9 -118 -34
-188 -56 -71 -23 -134 -38 -141 -36 -6 3 -36 89 -66 191 -40 135 -59 186 -70
186 -17 0 -389 -115 -396 -123 -4 -4 82 -299 105 -360 9 -23 13 -25 38 -17 46
15 370 110 376 110 5 0 36 -93 97 -296 l27 -92 -205 -61 c-112 -34 -206 -60
-208 -58 -3 2 -29 89 -60 193 -31 104 -57 190 -59 192 -1 2 -38 -8 -81 -21
-242 -75 -327 -98 -334 -90 -11 12 -112 374 -106 381 3 2 94 31 202 63 109 33
199 61 201 62 2 2 -22 87 -52 189 -30 102 -55 190 -55 195 0 5 62 28 138 52
75 23 162 51 192 61 30 10 60 19 66 19 5 1 34 -82 64 -184z m25536 -415 c224
-60 420 -232 498 -438 80 -208 73 -416 -19 -607 -76 -158 -185 -269 -337 -345
-123 -60 -182 -73 -333 -73 -118 0 -138 3 -217 30 -123 43 -190 85 -288 183
-96 96 -140 165 -183 283 -26 71 -31 100 -35 213 -5 146 11 234 63 349 85 187
271 345 475 404 95 27 276 28 376 1z m-18654 -6941 c199 -41 381 -219 433
-424 44 -172 -3 -373 -118 -513 -212 -257 -603 -276 -838 -41 -174 174 -218
450 -106 678 65 134 224 261 370 297 66 16 190 17 259 3z m13139 -134 c128
-32 200 -181 144 -299 -22 -47 -84 -99 -134 -114 -56 -17 -1198 -17 -1255 0
-53 16 -121 84 -135 134 -37 133 35 260 160 283 71 13 1168 10 1220 -4z m-723
-591 c193 -80 164 -376 -40 -412 -24 -4 -596 -8 -1273 -7 l-1230 0 -48 28
c-26 15 -60 47 -75 69 -24 37 -27 51 -27 123 0 73 3 86 27 121 27 38 71 72
113 86 11 3 582 6 1268 7 1107 1 1252 -1 1285 -15z"/>
<path d="M16505 20749 c-198 -12 -335 -87 -429 -234 -65 -101 -56 -60 -186
-800 -26 -146 -74 -421 -100 -570 -11 -66 -27 -156 -35 -200 -26 -136 -34
-179 -96 -535 -56 -323 -106 -603 -129 -730 -6 -30 -28 -158 -50 -285 -22
-126 -58 -331 -80 -455 -22 -124 -63 -353 -90 -510 -27 -157 -54 -310 -60
-340 -6 -30 -24 -131 -40 -225 -17 -93 -35 -195 -40 -225 -6 -30 -28 -156 -50
-280 -21 -124 -49 -279 -60 -345 -12 -66 -33 -183 -46 -260 -14 -77 -36 -203
-50 -280 -14 -77 -34 -190 -44 -252 -26 -148 -116 -655 -135 -763 -9 -47 -45
-251 -80 -455 -36 -203 -69 -395 -75 -425 -17 -94 -86 -482 -140 -790 -28
-162 -62 -356 -76 -430 -13 -74 -31 -173 -39 -220 -8 -47 -26 -148 -40 -225
-60 -337 -153 -874 -159 -918 -10 -82 10 -184 54 -274 66 -134 198 -240 360
-288 77 -23 213 -30 283 -16 128 27 262 124 315 228 23 44 155 688 232 1128
11 64 126 705 146 810 8 44 19 105 24 135 6 30 21 118 35 195 14 77 50 282 80
455 30 173 59 340 65 370 6 30 28 156 49 280 102 586 125 718 156 895 18 105
45 258 59 340 14 83 39 227 56 320 52 303 80 466 121 705 22 129 49 287 60
350 25 144 71 410 144 835 63 369 82 482 126 735 17 96 35 200 39 230 5 30 16
96 25 145 15 85 38 216 135 780 22 132 58 339 79 460 22 121 58 328 81 460 23
132 52 299 65 370 13 72 31 173 40 225 9 52 31 176 49 275 31 169 32 184 19
239 -36 159 -166 292 -334 342 -82 24 -131 29 -234 23z"/>
<path d="M19456 19133 c-3 -4 -6 -392 -6 -864 l0 -858 78 -29 c42 -17 289
-114 547 -217 1047 -416 1288 -511 1690 -670 231 -92 555 -220 720 -285 165
-66 523 -207 795 -315 272 -108 709 -281 970 -384 261 -104 496 -196 521 -206
102 -37 159 -116 159 -218 0 -71 -20 -121 -67 -169 -39 -40 -37 -39 -1073
-448 -551 -218 -887 -351 -1265 -500 -165 -66 -478 -189 -695 -275 -217 -86
-541 -214 -720 -285 -301 -119 -742 -294 -1205 -477 -104 -41 -248 -98 -320
-127 l-130 -52 -3 -862 c-1 -505 2 -862 7 -862 5 0 102 45 216 100 114 55 208
100 210 100 1 0 76 35 166 79 90 43 247 118 349 166 187 88 316 150 490 232
52 25 131 62 175 83 44 21 143 68 220 105 77 37 176 84 220 105 44 21 139 66
210 100 72 34 209 99 305 145 165 78 868 412 1120 532 63 31 198 95 300 143
102 48 237 112 300 143 104 49 354 168 630 299 58 28 157 75 220 105 63 30
151 72 195 93 44 21 276 131 515 245 239 114 462 220 495 235 33 15 137 65
230 110 94 45 180 86 193 91 l22 9 0 830 0 831 -172 83 c-166 80 -273 131
-458 218 -47 22 -330 157 -630 300 -300 143 -624 298 -720 343 -96 45 -229
108 -295 140 -134 64 -290 138 -410 195 -44 21 -224 106 -400 190 -176 84
-372 177 -435 207 -63 31 -146 70 -185 88 -38 18 -133 63 -210 100 -77 37
-180 86 -230 110 -49 23 -281 134 -515 245 -234 111 -461 219 -505 240 -44 21
-271 129 -505 240 -234 112 -470 224 -525 250 -55 26 -149 71 -210 100 -60 29
-153 73 -205 97 -52 25 -111 54 -131 64 -20 10 -39 15 -43 12z"/>
<path d="M11645 19056 c-125 -61 -858 -409 -1190 -566 -44 -21 -138 -66 -210
-100 -71 -34 -166 -79 -210 -100 -44 -21 -177 -84 -295 -140 -118 -56 -251
-119 -295 -140 -44 -21 -129 -61 -190 -90 -60 -29 -141 -67 -180 -85 -38 -18
-146 -69 -239 -114 -93 -45 -170 -81 -171 -81 -2 0 -87 -40 -190 -90 -103 -49
-188 -90 -190 -90 -1 0 -67 -31 -146 -69 -79 -38 -182 -87 -229 -109 -47 -22
-139 -66 -205 -97 -113 -54 -155 -74 -365 -173 -47 -22 -143 -68 -215 -102
-71 -34 -166 -79 -210 -100 -80 -38 -121 -57 -485 -230 -252 -120 -367 -175
-515 -244 -239 -113 -335 -159 -610 -290 l-280 -133 -3 -830 -2 -830 89 -41
c48 -23 236 -112 417 -198 351 -167 349 -166 784 -372 315 -149 422 -200 615
-292 72 -34 166 -79 210 -100 44 -21 163 -77 265 -125 102 -48 226 -107 275
-130 50 -23 161 -77 249 -119 87 -42 160 -76 161 -76 1 0 78 -36 171 -81 93
-45 196 -94 229 -109 71 -33 197 -93 465 -220 238 -113 376 -179 495 -235 50
-23 144 -68 210 -100 66 -31 147 -70 180 -85 33 -16 116 -55 185 -88 135 -64
1053 -500 1185 -562 44 -21 194 -92 334 -159 140 -66 257 -118 260 -116 4 2 6
391 6 866 l0 862 -205 82 c-113 45 -412 164 -665 264 -253 101 -782 311 -1175
468 -393 157 -832 331 -975 388 -143 57 -561 223 -930 370 -368 146 -828 329
-1021 406 -372 148 -388 157 -429 239 -37 71 -16 194 41 246 37 35 38 36 599
259 1380 550 1748 696 2485 990 1108 442 2058 820 2165 862 50 19 95 41 100
48 6 8 10 312 10 866 0 751 -2 854 -15 856 -8 1 -73 -27 -145 -61z"/>
<path d="M28610 15597 c-138 -39 -223 -152 -224 -297 -1 -66 3 -84 32 -142 36
-74 73 -110 147 -144 126 -57 277 -23 364 83 100 121 92 306 -16 418 -73 75
-204 110 -303 82z"/>
<path d="M10044 8641 c-76 -35 -107 -128 -64 -198 28 -46 65 -67 120 -67 80 0
140 59 140 139 0 104 -102 170 -196 126z"/>
</g>
</svg>
